# xmcd
#
# Track frame offsets: 
#        150
#        14568
#        37047
#        50267
#        68894
#        89637
#        108670
#        134756
#        161208
#        178766
#        204059
#        218339
#        237635
#
# Disc length: 3371 seconds
#
# Revision: 0
# Processed by: cddbd v1.5.2PL0 Copyright (c) Steve Scherf et al.
# Submitted via: ExactAudioCopy v0.99pb4
#
DISCID=c10d290d
DTITLE=Ernest Lane - Born with the Blues
DYEAR=2008
DGENRE=Funk
TTITLE0=Lane's Shuffle
TTITLE1=Mr. Goodbar
TTITLE2=Born With The Blues
TTITLE3=Slidin'
TTITLE4=Red Hot Mama
TTITLE5=Big Leg Girl
TTITLE6=Little Girl, Little Girl
TTITLE7=Mercy, Mercy
TTITLE8=Don't Mess With My Woman
TTITLE9=After Dinner
TTITLE10=Watching You
TTITLE11=What I Saw
TTITLE12=What Kind Of Love
EXTD=
EXTT0=
EXTT1=
EXTT2=
EXTT3=
EXTT4=
EXTT5=
EXTT6=
EXTT7=
EXTT8=
EXTT9=
EXTT10=
EXTT11=
EXTT12=
PLAYORDER=
